<svg width="350.000000" height="309.000000" viewBox="0 0 350 309" fill="none" xmlns="http://www.w3.org/2000/svg" xmlns:xlink="http://www.w3.org/1999/xlink">
	<desc>
			Created with Pixso.
	</desc>
	<defs/>
	<path id="Arrow 1" d="M173.5 106.2L171.52 108.18C171.32 108.38 171.01 108.38 170.81 108.18C170.62 107.98 170.62 107.67 170.81 107.47L173.64 104.64C173.84 104.44 174.15 104.44 174.35 104.64L177.18 107.47C177.38 107.67 177.38 107.98 177.18 108.18C176.98 108.38 176.67 108.38 176.47 108.18L174.5 106.2L174.5 129L173.5 129L173.5 106.2Z" fill="#FFFFFF" fill-opacity="1.000000" fill-rule="evenodd"/>
	<path id="Arrow 2" d="M40.79 2.5L38.81 0.52C38.62 0.32 38.62 0.01 38.81 -0.19C39.01 -0.39 39.32 -0.39 39.52 -0.19L42.35 2.64C42.55 2.84 42.55 3.15 42.35 3.35L39.52 6.18C39.32 6.38 39.01 6.38 38.81 6.18C38.62 5.98 38.62 5.67 38.81 5.47L40.79 3.5L0 3.5L0 2.5L40.79 2.5Z" fill="#FFFFFF" fill-opacity="1.000000" fill-rule="evenodd"/>
	<line id="Line 9" x1="0.500000" y1="3.000000" x2="0.500000" y2="309.000000" stroke="#FFFFFF" stroke-opacity="1.000000" stroke-width="1.000000"/>
	<line id="Line 10" x1="0.000000" y1="308.500000" x2="108.000000" y2="308.500000" stroke="#FFFFFF" stroke-opacity="1.000000" stroke-width="1.000000"/>
	<path id="Arrow 2" d="M309.2 2.5L311.18 0.52C311.38 0.32 311.38 0.01 311.18 -0.19C310.98 -0.39 310.67 -0.39 310.47 -0.19L307.64 2.64C307.44 2.84 307.44 3.15 307.64 3.35L310.47 6.18C310.67 6.38 310.98 6.38 311.18 6.18C311.38 5.98 311.38 5.67 311.18 5.47L309.2 3.5L350 3.5L350 2.5L309.2 2.5Z" fill="#FFFFFF" fill-opacity="1.000000" fill-rule="evenodd"/>
	<line id="Line 9" x1="349.500000" y1="3.000000" x2="349.500000" y2="309.000000" stroke="#FFFFFF" stroke-opacity="1.000000" stroke-width="1.000000"/>
	<line id="Line 10" x1="349.000000" y1="308.500000" x2="240.000000" y2="308.500000" stroke="#FFFFFF" stroke-opacity="1.000000" stroke-width="1.000000"/>
	<path id="Arrow 2" d="M253.2 29.5L255.18 31.47C255.38 31.67 255.38 31.98 255.18 32.18C254.98 32.38 254.67 32.38 254.47 32.18L251.64 29.35C251.44 29.15 251.44 28.84 251.64 28.64L254.47 25.81C254.67 25.61 254.98 25.61 255.18 25.81C255.38 26.01 255.38 26.32 255.18 26.52L253.2 28.5L291 28.5L291 29.5L253.2 29.5Z" fill="#FFFFFF" fill-opacity="1.000000" fill-rule="evenodd"/>
	<line id="Line 9" x1="290.500000" y1="29.000000" x2="290.500000" y2="237.000000" stroke="#FFFFFF" stroke-opacity="1.000000" stroke-width="1.000000"/>
	<line id="Line 10" x1="252.000000" y1="236.500000" x2="290.000000" y2="236.500000" stroke="#FFFFFF" stroke-opacity="1.000000" stroke-width="1.000000"/>
	<path id="Arrow 2" d="M94.79 29.5L92.81 31.47C92.62 31.67 92.62 31.98 92.81 32.18C93.01 32.38 93.32 32.38 93.52 32.18L96.35 29.35C96.55 29.15 96.55 28.84 96.35 28.64L93.52 25.81C93.32 25.61 93.01 25.61 92.81 25.81C92.62 26.01 92.62 26.32 92.81 26.52L94.79 28.5L57 28.5L57 29.5L94.79 29.5Z" fill="#FFFFFF" fill-opacity="1.000000" fill-rule="evenodd"/>
	<line id="Line 9" x1="57.500000" y1="29.000000" x2="57.500000" y2="237.000000" stroke="#FFFFFF" stroke-opacity="1.000000" stroke-width="1.000000"/>
	<line id="Line 10" x1="96.000000" y1="236.500000" x2="58.000000" y2="236.500000" stroke="#FFFFFF" stroke-opacity="1.000000" stroke-width="1.000000"/>
</svg>
