<svg width="85" height="85" viewBox="0 0 85 85" fill="none" xmlns="http://www.w3.org/2000/svg">
<circle cx="42.5" cy="42.5" r="42.5" fill="#C10723" fill-opacity="0.9" style="mix-blend-mode:multiply"/>
<circle cx="42.5" cy="42.5" r="33.5" stroke="white" stroke-width="2"/>
<path fill-rule="evenodd" clip-rule="evenodd" d="M37.444 28.1464C33.6238 28.7841 30.1016 31.3699 28.3433 34.8277C27.3967 36.6892 27.0016 38.359 27 40.5059C26.9987 42.1378 27.1459 43.0958 27.6157 44.511C28.6254 47.5531 30.925 50.2089 33.821 51.6776C35.4315 52.4944 36.7104 52.864 38.516 53.0344C41.5631 53.3218 44.9289 52.3207 47.3587 50.4045L47.8678 50.0028L52.351 54.456C56.5745 58.651 56.8552 58.9091 57.1957 58.9091C57.6652 58.9091 58 58.5698 58 58.0941C58 57.7738 57.6754 57.4249 53.5704 53.3335C51.134 50.9053 49.1407 48.8799 49.1407 48.8326C49.1407 48.7854 49.35 48.4694 49.6059 48.1306C52.4665 44.3413 52.9878 39.4196 50.9743 35.2087C50.2898 33.777 49.5697 32.7657 48.429 31.6338C46.5154 29.7348 44.2202 28.5629 41.58 28.1365C40.4296 27.9507 38.5897 27.9551 37.444 28.1464ZM40.8415 29.8197C43.7254 30.1715 46.2923 31.5792 48.0588 33.7777C51.653 38.2506 51.1579 44.7063 46.9245 48.5689C40.9964 53.9776 31.385 51.2827 29.1443 43.5836C28.0135 39.6984 29.1189 35.5923 32.0496 32.7914C33.1899 31.7016 34.0376 31.1456 35.4368 30.57C37.2583 29.8207 38.9384 29.5874 40.8415 29.8197Z" fill="white"/>
<path d="M43.5342 39.8292V40.8976H40.0337V44.4846H38.795V40.8976H35.2676V39.8292H38.795V36.2422H40.0337V39.8292H43.5342Z" fill="white"/>
</svg>
