<svg width="20" height="21" viewBox="0 0 20 21" fill="none" xmlns="http://www.w3.org/2000/svg">
<path d="M5.21778 9.49167C6.49778 11.85 8.56 13.7833 11.0756 14.9833L13.0311 13.15C13.28 12.9167 13.6267 12.85 13.9378 12.9417C14.9333 13.25 16 13.4167 17.1111 13.4167C17.3469 13.4167 17.573 13.5045 17.7397 13.6607C17.9064 13.817 18 14.029 18 14.25V17.1667C18 17.3877 17.9064 17.5996 17.7397 17.7559C17.573 17.9122 17.3469 18 17.1111 18C13.1034 18 9.25983 16.5074 6.42594 13.8507C3.59206 11.1939 2 7.59057 2 3.83333C2 3.61232 2.09365 3.40036 2.26035 3.24408C2.42705 3.0878 2.65314 3 2.88889 3H6C6.23575 3 6.46184 3.0878 6.62854 3.24408C6.79524 3.40036 6.88889 3.61232 6.88889 3.83333C6.88889 4.875 7.06667 5.875 7.39556 6.80833C7.49333 7.1 7.42222 7.425 7.17333 7.65833L5.21778 9.49167Z" fill="#080808"/>
</svg>
