<svg width="28" height="27" viewBox="0 0 28 27" fill="none" xmlns="http://www.w3.org/2000/svg">
<path d="M8.38933 12.5205L6.0531 1.05211H6.01772L3.62829 12.5205H2.74334L0 0H0.74337L3.16817 11.4684H3.20354L5.57524 0H6.47784L8.86727 11.4684H8.90264L11.3274 0H12.0708L9.30975 12.5205H8.38933ZM13.3451 12.5205V0H19.3805V0.666331H14.0885V5.66406H19.0265V6.33038H14.0885V11.8542H19.5398V12.5205H13.3451ZM20.885 12.5205V0H24.2832C26.4897 0 27.593 1.04048 27.593 3.12136C27.593 3.93968 27.3835 4.58853 26.9646 5.06782C26.5458 5.54712 25.9764 5.83352 25.2567 5.92704V5.96217C26.1416 6.02056 26.8201 6.33917 27.2921 6.91783C27.764 7.4965 28 8.23008 28 9.11858C28 10.1707 27.6785 11.0007 27.0354 11.6087C26.3924 12.2165 25.5104 12.5205 24.3894 12.5205H20.885ZM21.6284 5.66406H24.0532C24.9027 5.66406 25.5812 5.4536 26.0885 5.03277C26.5959 4.61186 26.8496 3.97472 26.8496 3.12136C26.8496 1.43797 26.0237 0.596236 24.3717 0.596236H21.6284V5.66406ZM21.6284 11.9243H24.1239C25.1859 11.9243 25.9735 11.7051 26.4867 11.2667C27.0001 10.8283 27.2566 10.1064 27.2566 9.10101C27.2566 7.20717 26.2006 6.26028 24.0885 6.26028H21.6284V11.9243Z" fill="white"/>
<path d="M13.4946 27.0004V15.917H16.7692C17.5944 15.917 18.2524 16.1498 18.7433 16.6155C19.276 17.1226 19.5424 17.8573 19.5424 18.8198C19.5424 19.5752 19.3492 20.1962 18.9627 20.6825C18.5658 21.1999 18.0122 21.4949 17.3019 21.5673V21.5984C18.1479 21.6501 18.7381 21.9296 19.0723 22.4367C19.3334 22.8506 19.4641 23.487 19.4641 24.346V25.5102C19.4641 26.1001 19.5894 26.5968 19.8401 27.0004H19.088C18.9 26.6486 18.806 26.1467 18.806 25.4947V24.3615C18.806 23.5129 18.6598 22.8971 18.3673 22.5143C18.0226 22.0796 17.422 21.8623 16.5655 21.8623H14.1527V27.0004H13.4946ZM14.1527 21.3345H16.2522C18.007 21.3345 18.8843 20.4962 18.8843 18.8198C18.8843 18.0747 18.6885 17.4926 18.2968 17.0734C17.9051 16.6543 17.3645 16.4447 16.6752 16.4447H14.1527V21.3345ZM26.1228 23.0265L24.1957 16.5689H24.1644L22.1903 23.0265H26.1228ZM27.3137 27.0004L26.2482 23.5543H22.0336L20.9682 27.0004H20.3102L23.7884 15.917H24.6188L27.9717 27.0004H27.3137Z" fill="white"/>
<mask id="mask0_66_733" style="mask-type:luminance" maskUnits="userSpaceOnUse" x="1" y="16" width="10" height="10">
<path d="M8.44614 17.15C10.7674 18.4379 11.5627 21.2905 10.2226 23.5211C8.88237 25.7519 5.91412 26.5162 3.59282 25.2283C1.27161 23.9404 0.476231 21.0879 1.81641 18.8572C3.15659 16.6265 6.12485 15.8621 8.44614 17.15Z" fill="white"/>
</mask>
<g mask="url(#mask0_66_733)">
<path fill-rule="evenodd" clip-rule="evenodd" d="M4.08862 25.7066L5.13449 26.2869C5.38718 25.3511 6.03928 24.2073 6.88785 23.653C7.30154 23.3828 7.93769 22.8316 8.29878 22.5063C8.45277 22.3675 8.61909 22.2206 8.75578 22.0744C10.2084 20.5202 9.66286 19.5987 9.95582 17.9181L9.18501 17.4904C9.10987 18.0051 9.04697 18.5108 8.93299 19.0514C8.80914 19.6387 8.77225 20.0986 8.42661 20.6589C8.09836 21.191 7.69666 21.681 7.30669 22.1629C7.1077 22.4089 6.39599 23.581 6.23482 23.5755C6.10083 23.4176 6.30591 22.9916 6.38392 22.7855C6.48987 22.5056 6.61288 22.2265 6.73192 21.9452C6.96654 21.3905 7.19863 20.8061 7.48542 20.2741C7.72933 19.8216 7.91633 19.1424 8.08029 18.648C8.14681 18.4474 8.32014 18.0013 8.3106 17.8334C8.29684 17.5902 8.32301 17.3263 8.41343 17.0623L7.75381 16.6963C7.52806 17.7525 7.49141 17.8634 7.0898 18.8916C6.78916 19.6613 6.4783 20.3916 6.07897 21.1501C5.86436 21.5577 5.63016 21.8678 5.48241 22.2997C5.35332 22.6769 5.26721 23.0282 5.10393 23.4166C4.78446 24.177 4.39517 24.9434 4.08862 25.7066Z" fill="white"/>
<path fill-rule="evenodd" clip-rule="evenodd" d="M5.64258 26.5692L6.03086 26.7845C6.60538 26.3802 6.56393 26.2228 6.9858 25.8912C7.14435 25.7666 7.34393 25.6417 7.48307 25.5099C7.98295 25.036 7.78776 25.0761 8.51062 24.8426L10.2193 24.2947L10.9152 23.1364L10.8755 23.1447C10.8704 23.1461 10.8617 23.1481 10.8562 23.1496L10.4716 23.2941C10.188 23.4033 9.26767 23.8319 9.19135 23.4516C9.17345 23.3424 10.8623 22.3652 11.1515 21.9227C11.4985 21.3913 12.0597 20.5277 12.3617 19.9705C12.5037 19.7088 12.468 19.6051 12.5333 19.3485L11.7397 18.9082C11.576 19.4481 11.618 19.5618 11.2207 20.0322C11.0892 20.1878 10.9238 20.3762 10.822 20.5527C10.3019 21.4542 9.65949 22.3425 8.89898 23.0874C8.1041 23.8658 7.09488 24.0557 6.25822 25.3922C6.00908 25.7901 5.77048 26.1277 5.64258 26.5692Z" fill="white"/>
<path fill-rule="evenodd" clip-rule="evenodd" d="M-0.775391 23.0082L0.0343414 23.4575C0.154733 23.0147 0.127629 22.7381 0.185039 22.2341C0.217965 21.9449 0.160646 22.0727 0.25267 21.635C0.37188 21.0674 0.557952 20.2887 0.719965 19.7473C0.901059 19.142 1.0613 17.9197 1.12867 17.2693C1.13973 17.1626 1.1269 17.0681 1.13838 16.9731C1.16708 16.7367 1.35249 16.3419 1.3562 16.0366C1.3611 15.6336 1.39512 15.2122 1.59082 14.7992C1.78517 14.3891 1.85086 13.9156 2.00941 13.5094L1.54481 13.2516L1.37849 14.2874C1.21757 14.1738 1.21757 13.2692 1.23708 13.0809L0.661799 12.7617C0.6374 13.2765 0.946568 14.0693 0.868981 14.5896C0.838756 14.7922 0.779489 15.0392 0.782782 15.2296C0.797303 16.048 0.398558 16.9729 0.270652 17.8186C0.209105 18.2252 0.166466 18.7058 0.0636349 19.1052C-0.0515223 19.5523 -0.220627 19.9667 -0.311723 20.4223C-0.355878 20.6432 -0.347266 20.8262 -0.403578 21.0616C-0.497037 21.4516 -0.753775 22.1267 -0.738916 22.3733C-0.72583 22.5909 -0.673151 22.7746 -0.775391 23.0082Z" fill="white"/>
<path fill-rule="evenodd" clip-rule="evenodd" d="M2.4834 24.8164L3.43674 25.3453C3.63497 24.764 3.67186 25.1329 4.02561 24.1153C4.1677 23.7064 4.29171 23.2815 4.40822 22.8716C4.69865 21.8502 4.72018 21.5845 4.63356 20.4816C4.61811 20.2849 4.56644 20.1234 4.59895 19.9218C4.67679 19.4396 4.95007 18.5457 5.09267 18.0662C5.21551 17.6528 5.34688 17.2368 5.47985 16.8202C5.62211 16.3745 5.65089 16.0142 5.75465 15.5875L5.13918 15.2461C5.04995 15.6303 4.98925 16.0291 4.90127 16.4173C4.85079 16.6403 4.88067 16.7776 4.83517 16.9987C4.71056 17.6045 4.481 18.2292 4.27644 18.8089C4.14068 19.1935 4.04494 19.6186 3.94676 20.0084C3.81294 20.5395 3.83405 21.1904 3.69981 21.7428C3.44037 22.81 3.03175 23.8448 2.4834 24.8164Z" fill="white"/>
<path fill-rule="evenodd" clip-rule="evenodd" d="M0.817749 23.8916L1.90836 24.4967C2.54949 23.5939 2.57643 23.0596 2.82549 22.0921C2.96074 21.5666 3.31026 20.2074 3.37958 19.7321C3.55215 18.5493 3.82248 18.3399 4.15351 17.33C4.33106 16.7885 4.42739 16.1402 4.54364 15.5702C4.58164 15.3841 4.60257 15.1505 4.6523 14.9753L4.05262 14.6426C3.73003 15.81 3.59014 16.8857 3.23225 18.0943C3.08848 18.58 2.71641 19.431 2.6612 19.8502C2.63021 20.0851 2.68332 20.1428 2.59366 20.4149C2.52704 20.6169 2.45216 20.8031 2.38132 21.0027C2.30694 21.2119 2.29588 21.392 2.22826 21.5828C1.68633 23.1103 1.29594 23.0491 0.817749 23.8916Z" fill="white"/>
<path fill-rule="evenodd" clip-rule="evenodd" d="M3.35155 14.2535L2.64643 13.8623C2.54241 14.2 2.485 14.6222 2.3972 14.9736C2.30779 15.3313 2.15853 15.7645 2.13354 16.1061C2.1137 16.3769 2.11555 16.9683 2.02741 17.1902C1.87739 17.5679 1.79837 17.952 1.71065 18.3295C1.5358 19.0824 1.42909 19.8418 1.09054 20.5915C0.906405 20.9994 0.665955 22.5191 0.89475 22.7731C1.27914 22.8307 1.34525 22.1115 1.41212 21.8693C1.62842 21.087 2.01238 20.4531 2.11614 19.6821C2.15971 19.3582 2.20082 18.9081 2.31176 18.5975C2.4465 18.2204 2.54014 17.8934 2.61857 17.5154L2.8162 16.4324C2.91059 16.0655 3.0439 15.7065 3.15518 15.3411C3.28274 14.9219 3.28646 14.6483 3.35155 14.2535Z" fill="white"/>
<path fill-rule="evenodd" clip-rule="evenodd" d="M7.03846 16.2997L6.37167 15.9297C6.28615 16.3774 6.29011 16.7498 6.14557 17.2255C6.05971 17.5079 5.77334 18.1231 5.61977 18.5906C5.45387 19.0953 4.80598 20.9191 5.26374 21.1639C5.46527 21.1275 5.50157 20.8307 5.53796 20.6568C5.62821 20.2259 5.882 19.8224 6.07052 19.3978C6.18078 19.1498 6.19344 19.0129 6.26208 18.7791C6.38433 18.3622 6.54272 17.955 6.6886 17.5414C6.8361 17.123 6.91208 16.7109 7.03846 16.2997Z" fill="white"/>
<path fill-rule="evenodd" clip-rule="evenodd" d="M6.7157 27.1644L7.59609 27.6529C7.81678 27.3797 8.23621 27.0696 8.53567 27.0973L9.54372 25.4195C9.37942 25.4083 8.94581 25.5595 8.75248 25.6419C8.51288 25.744 8.27496 25.8662 8.03654 26.02C7.67308 26.2545 6.96374 26.7699 6.7157 27.1644Z" fill="white"/>
</g>
</svg>
