<svg width="34" height="30" viewBox="0 0 34 30" fill="none" xmlns="http://www.w3.org/2000/svg">
<path fill-rule="evenodd" clip-rule="evenodd" d="M10.4483 2.31877L4.00133 4.6304L4.00005 10.2847C3.99883 15.9202 4.02056 16.5877 4.24477 17.7927C4.6513 19.9777 5.65242 22.0954 7.13325 23.9028C7.76758 24.6771 9.12656 25.9512 10.024 26.6131C11.8488 27.959 13.9715 29.0431 16.1236 29.7284L16.9766 30L17.4658 29.8637C19.1583 29.3919 21.3085 28.3927 22.9882 27.2975C26.3237 25.1227 28.5724 22.2145 29.4938 18.8838C29.9563 17.212 29.946 17.3872 29.9743 10.6989L30 4.6304L23.5153 2.31164C19.9488 1.03639 17.0003 -0.00385707 16.963 1.07512e-05C16.9258 0.00394526 13.9942 1.04732 10.4483 2.31877ZM19.5362 16.133L14.8308 20.7682L12.2923 18.2683L9.75392 15.7685L10.5144 15.0172L11.2748 14.266L13.0528 16.0165L14.8309 17.7671L18.7736 13.8834L22.7162 9.99967L23.4789 10.7488L24.2416 11.498L19.5362 16.133Z" fill="#C10723"/>
</svg>
