<svg width="34" height="30" viewBox="0 0 34 30" fill="none" xmlns="http://www.w3.org/2000/svg">
<path fill-rule="evenodd" clip-rule="evenodd" d="M5.42479 3.21778C5.21602 3.3343 4.84105 3.64191 4.59158 3.90137C4.13099 4.38032 1.23336 8.0168 0.667149 8.82642C-0.124237 9.95792 -0.206768 10.7798 0.39405 11.5462C0.63036 11.8476 1.97705 12.9106 2.05965 12.861C2.16566 12.7972 8.66249 4.54426 8.68107 4.4497C8.70371 4.33494 7.55775 3.47328 7.02908 3.20753C6.4719 2.92744 5.93902 2.93088 5.42479 3.21778ZM27.1338 3.15696C26.7369 3.3321 25.4027 4.29051 25.4027 4.40052C25.4027 4.44209 26.8784 6.38453 28.6821 8.717L31.9615 12.9579L32.4244 12.6105C33.1199 12.0888 33.7435 11.4627 33.8787 11.1506C33.9449 10.9976 33.9995 10.6976 34 10.4839C34.0015 9.81667 33.5307 9.04445 31.5598 6.48114C29.7557 4.13491 29.1229 3.42915 28.5829 3.16113C28.1743 2.9584 27.5877 2.95664 27.1338 3.15696ZM13.7791 4.76983C12.6205 4.88649 11.1709 4.98991 10.5578 4.99964L9.44304 5.01736L6.10092 9.25004L2.75873 13.4827L3.07148 13.8435C3.3682 14.1858 3.3922 14.1985 3.54094 14.0912C3.96691 13.7841 4.37573 13.6567 4.94066 13.6552C5.42916 13.6539 5.57458 13.6863 6.00462 13.8923C6.8425 14.2935 7.41684 15.1003 7.48259 15.9682L7.51374 16.3798L8.02909 16.4156C9.27218 16.5022 10.2951 17.4955 10.4099 18.7277L10.4489 19.1456L10.8981 19.1556C11.7859 19.1755 12.6955 19.8071 13.1275 20.7036C13.2957 21.0527 13.3277 21.2196 13.3275 21.7486L13.3273 22.3784L13.699 22.5067C13.9468 22.5924 14.2123 22.7729 14.4957 23.0486C15.3257 23.856 15.4633 24.8345 14.8895 25.8491C14.8325 25.9499 16.2227 26.9465 16.4763 26.9866C17.2462 27.1081 18.0346 26.3866 18.0262 25.5682L18.0226 25.2176L17.2686 24.64C16.3516 23.9375 16.2479 23.8055 16.388 23.5198C16.4633 23.3662 16.5511 23.3088 16.7381 23.2913C16.9573 23.2708 17.1025 23.3583 17.9319 24.0102C18.4512 24.4184 18.965 24.7856 19.0737 24.8262C19.5089 24.9887 20.2626 24.7146 20.6583 24.25C20.9457 23.9125 21.141 23.3075 21.0742 22.9613C20.9911 22.5305 20.78 22.292 19.8035 21.5261C18.9335 20.8435 18.8574 20.7642 18.8574 20.5396C18.8574 20.4052 18.9082 20.2542 18.9704 20.2039C19.2299 19.9944 19.445 20.1045 20.7214 21.0994C21.4176 21.6422 22.0594 22.1239 22.1477 22.1698C22.4028 22.3027 23.0413 22.2708 23.3671 22.1092C24.0225 21.7839 24.4554 20.9156 24.2802 20.2778C24.1624 19.8488 24.0896 19.7771 22.5959 18.6177C21.3371 17.6407 21.3315 17.635 21.3545 17.3654C21.3728 17.1521 21.4224 17.0739 21.5886 16.9968C21.856 16.8727 21.7697 16.8177 23.8604 18.4459C25.8646 20.0067 25.8324 19.9846 26.1154 19.9841C26.5944 19.9833 26.9392 19.8298 27.3228 19.4469C28.0195 18.7512 28.0762 17.8922 27.4621 17.3374C26.7842 16.7251 19.3611 11.0249 18.9928 10.834C18.7336 10.6996 18.3897 10.5892 18.159 10.5662C17.8048 10.5309 15.8691 10.7388 14.9162 10.9145C14.0547 11.0733 12.9662 10.9398 12.2542 10.5879C11.3338 10.1331 10.7321 9.29073 10.7321 8.4571C10.7321 7.4861 11.2411 7.0545 12.6206 6.85558C13.1895 6.77353 13.8293 6.57709 15.63 5.93178C16.8878 5.48101 18.0269 5.09479 18.1614 5.07349C18.296 5.05219 18.406 5.01216 18.406 4.98457C18.406 4.83599 16.88 4.53855 16.1866 4.55194C16.021 4.55517 14.9377 4.65317 13.7791 4.76983ZM24.1099 5.09881C23.4575 5.3653 22.7419 5.48533 20.8511 5.64547C19.8994 5.72605 18.9006 5.83664 18.6317 5.89116C18.3627 5.94569 17.1135 6.35913 15.8557 6.80998C14.1075 7.43655 13.4052 7.65356 12.8749 7.73107C11.7936 7.88908 11.6349 7.98028 11.6349 8.44386C11.6349 9.18856 12.4455 9.85765 13.5683 10.0398C14.0249 10.114 14.262 10.0975 15.7683 9.88737C16.6968 9.75782 17.6834 9.65389 17.9607 9.65646C18.5253 9.66158 19.1206 9.84719 19.7226 10.2057C20.0034 10.3731 26.6493 15.4803 27.3602 16.0752C27.4563 16.1556 27.587 16.1187 28.1822 15.8436C28.5714 15.6637 29.1801 15.3286 29.5349 15.099C30.1899 14.6751 31.3074 13.6771 31.2595 13.5587C31.2133 13.4441 24.6142 4.9157 24.5751 4.92001C24.5545 4.92228 24.3451 5.00279 24.1099 5.09881ZM4.32653 14.6238C4.09503 14.7725 2.53731 16.406 2.40257 16.6413C2.35231 16.729 2.31033 16.982 2.30928 17.2034C2.30552 17.9656 2.8636 18.6214 3.68433 18.8192C4.30825 18.9697 4.50724 18.8631 5.47994 17.8567C5.94797 17.3724 6.39012 16.8713 6.46257 16.7432C6.75515 16.2257 6.50101 15.3082 5.95226 14.9011C5.42412 14.5091 4.69781 14.3853 4.32653 14.6238ZM7.30895 17.4139C6.9956 17.5621 5.67811 18.8838 5.39778 19.3311C5.20436 19.6398 5.18653 20.2546 5.3613 20.592C5.69315 21.2329 6.27862 21.5947 6.98402 21.5947H7.45498L8.33966 20.6982C8.82619 20.205 9.29678 19.6595 9.38541 19.4857C9.97306 18.3338 8.4908 16.8548 7.30895 17.4139ZM10.3153 20.0855C10.0694 20.1915 8.43024 21.8473 8.2584 22.1631C8.2013 22.2681 8.15616 22.5249 8.15812 22.7338C8.16797 23.8012 9.36299 24.6592 10.306 24.2759C10.5778 24.1653 12.1224 22.6089 12.3308 22.2355C12.6993 21.5751 12.1998 20.4967 11.3716 20.1646C10.9889 20.0111 10.5618 19.9791 10.3153 20.0855ZM11.9488 24.0327L11.1717 24.8516L11.2045 25.2021C11.245 25.6364 11.5436 26.0275 12.0126 26.2605C12.3603 26.4334 12.8285 26.4748 13.0616 26.3534C13.2387 26.2613 14.1268 25.3641 14.2466 25.1564C14.3566 24.9658 14.3698 24.5265 14.2731 24.279C14.0994 23.8346 13.2433 23.1966 12.8386 23.2101C12.7766 23.2121 12.3761 23.5823 11.9488 24.0327Z" fill="#C10723"/>
</svg>
