<svg width="34" height="30" viewBox="0 0 34 30" fill="none" xmlns="http://www.w3.org/2000/svg">
<g clip-path="url(#clip0_66_898)">
<path fill-rule="evenodd" clip-rule="evenodd" d="M8.86626 0.0326742C8.84039 0.0588982 8.81922 0.640032 8.81922 1.32396V2.56756L8.35232 2.71173C8.09549 2.79103 7.59186 3.00089 7.23308 3.17815L6.58073 3.50048L5.69362 2.60318L4.80651 1.70596L3.23392 3.30015L1.66126 4.89427L2.54637 5.79353L3.43154 6.69279L3.11654 7.34874C2.94334 7.70956 2.73341 8.21939 2.65005 8.48177L2.49843 8.95885L1.24922 8.97792L0 8.99699V11.2408V13.4845L1.24859 13.5036L2.49719 13.5227L2.68374 14.0996C2.78639 14.4169 2.99321 14.9289 3.14338 15.2375L3.41639 15.7984L2.53883 16.6928L1.66126 17.5872L3.23392 19.1814L4.80651 20.7755L5.68885 19.8871L6.57118 18.9987L7.26289 19.3405C7.64333 19.5284 8.14848 19.7386 8.38538 19.8075L8.81625 19.9327L8.83499 21.1961L8.85381 22.4596L11.083 22.4781L13.3122 22.4966L13.331 21.226L13.3499 19.9554L13.9724 19.7288C14.3148 19.6042 14.8128 19.389 15.0791 19.2506L15.5633 18.999L16.4457 19.8873L17.328 20.7755L18.9006 19.1814L20.4733 17.5872L19.597 16.6928L18.7208 15.7984L18.9689 15.3076C19.1054 15.0376 19.3177 14.5328 19.4406 14.1857L19.6642 13.5546L20.9176 13.5355L22.171 13.5164L22.1528 11.2567L22.1345 8.99699L20.8881 8.97792L19.6418 8.95892L19.517 8.52215C19.4483 8.282 19.2427 7.76993 19.0601 7.38429L18.7281 6.68311L19.6007 5.78869L20.4733 4.89427L18.9006 3.30015L17.328 1.70596L16.4457 2.59554L15.5633 3.48512L15.01 3.20837C14.7056 3.05614 14.2005 2.84649 13.8875 2.74244L13.3183 2.55333L13.2995 1.28764L13.2807 0.0219462L11.097 0.00343519C9.896 -0.00673185 8.8922 0.00645023 8.86626 0.0326742ZM12.0064 6.88849C13.6457 7.24076 14.934 8.52103 15.3616 10.2227C15.5317 10.8996 15.4715 12.0531 15.2301 12.7467C14.7891 14.013 13.7215 15.0754 12.4734 15.4899C12.037 15.6347 11.8366 15.6577 11.0327 15.6551C10.1998 15.6524 10.0484 15.6326 9.63253 15.4712C8.94608 15.2049 8.42869 14.8705 7.95791 14.3885C6.60577 13.0046 6.29851 10.9567 7.17525 9.17229C7.4814 8.54908 8.41215 7.60565 9.02673 7.29552C9.95119 6.8291 11.0387 6.68052 12.0064 6.88849ZM25.8351 17.341C25.8351 17.9434 25.8108 18.2174 25.7573 18.2174C25.7145 18.2174 25.4943 18.3017 25.2681 18.4046L24.8566 18.5918L24.2571 17.9841L23.6576 17.3764L22.6023 18.4443L21.5471 19.5124L22.1462 20.1225L22.7454 20.7327L22.561 21.1491C22.4595 21.3781 22.3766 21.601 22.3766 21.6444C22.3766 21.6986 22.1063 21.7233 21.512 21.7233H20.6474V23.2309V24.7384L21.4947 24.7392L22.342 24.7401L22.5408 25.2375L22.7394 25.735L22.1432 26.3422L21.5471 26.9493L22.6023 28.0174L23.6576 29.0853L24.2458 28.489L24.834 27.8928L25.3173 28.0993L25.8005 28.3059L25.82 29.1529L25.8394 30L27.3071 29.9811L28.7749 29.9621L28.7942 29.1207L28.8136 28.2793L29.2825 28.0631L29.7514 27.847L30.3556 28.4313C30.688 28.7526 30.9822 29.0155 31.0096 29.0155C31.0369 29.0155 31.5099 28.558 32.0607 27.9986L33.062 26.9817L32.4682 26.3797L31.8742 25.7776L32.0844 25.2601L32.2945 24.7424L33.1286 24.7229L33.9626 24.7033L33.9813 23.2133L34 21.7233H33.1449H32.2898L32.0971 21.2254L31.9044 20.7276L32.4666 20.1547C32.7758 19.8396 33.0288 19.5513 33.0288 19.514C33.0288 19.4767 32.5702 18.9805 32.0097 18.4114L30.9905 17.3765L30.4015 17.9706L29.8124 18.5647L29.3118 18.3735L28.8113 18.1824L28.8104 17.3234L28.8095 16.4645H27.3223H25.8351V17.341ZM28.0704 21.1338C28.4884 21.2781 29.044 21.7874 29.2792 22.2416C29.5274 22.7211 29.546 23.614 29.3181 24.1159C29.1071 24.5805 28.7185 24.9849 28.2672 25.2096C27.9315 25.3767 27.7918 25.4044 27.2877 25.4035C26.7851 25.4027 26.6485 25.3753 26.3464 25.2145C25.8984 24.9761 25.396 24.4129 25.2535 23.9892C25.1285 23.6171 25.1101 22.9346 25.2149 22.5523C25.3801 21.9492 26.037 21.2702 26.6213 21.0985C26.9729 20.9952 27.722 21.0135 28.0704 21.1338Z" fill="#C10723"/>
</g>
<defs>
<clipPath id="clip0_66_898">
<rect width="34" height="30" fill="white"/>
</clipPath>
</defs>
</svg>
