<svg width="20.000000" height="20.000000" viewBox="0 0 20 20" fill="none" xmlns="http://www.w3.org/2000/svg" xmlns:xlink="http://www.w3.org/1999/xlink">
	<desc>
			Created with Pixso.
	</desc>
	<defs/>
	<rect id="fill" width="20.000000" height="20.000000" transform="translate(-0.500000 0.000000)" fill="#FFFFFF" fill-opacity="0"/>
	<path id="Mask" d="M12 7.5L14.5 7.5C15.8784 7.5 17 8.62207 17 10L17 15C17 16.3779 15.8784 17.5 14.5 17.5L9.5 17.5C8.12158 17.5 7 16.3779 7 15L7 12.5L4.22241 12.5C2.99658 12.5 2 11.5029 2 10.2773L2 4.72266C2 3.49707 2.99658 2.5 4.22241 2.5L9.77759 2.5C11.0034 2.5 12 3.49707 12 4.72266L12 7.5ZM7 10L7 10.833L4.22241 10.833C3.91577 10.833 3.66675 10.584 3.66675 10.2773L3.66675 4.72266C3.66675 4.41602 3.91577 4.16699 4.22241 4.16699L9.77759 4.16699C10.0842 4.16699 10.3333 4.41602 10.3333 4.72266L10.3333 7.5L9.5 7.5C8.12158 7.5 7 8.62207 7 10Z" clip-rule="evenodd" fill="#FFFFFF" fill-opacity="1.000000" fill-rule="evenodd"/>
</svg>
