<svg width="20" height="21" viewBox="0 0 20 21" fill="none" xmlns="http://www.w3.org/2000/svg">
<path d="M0.714294 5.81955C0.714294 5.07176 1.02007 4.35459 1.56435 3.82583C2.10863 3.29706 2.84683 3 3.61656 3H16.3835C17.1532 3 17.8914 3.29706 18.4357 3.82583C18.98 4.35459 19.2857 5.07176 19.2857 5.81955V5.82707L9.99846 10.4489L0.714294 5.83008V5.81955ZM0.714294 7.09699V14.4662C0.714294 15.214 1.02007 15.9311 1.56435 16.4599C2.10863 16.9887 2.84683 17.2857 3.61656 17.2857H16.3835C17.1532 17.2857 17.8914 16.9887 18.4357 16.4599C18.98 15.9311 19.2857 15.214 19.2857 14.4662V7.09474L10.2631 11.585C10.1812 11.6257 10.0905 11.647 9.99846 11.647C9.90642 11.647 9.81569 11.6257 9.73378 11.585L0.714294 7.09699Z" fill="#080808"/>
</svg>
