<svg width="34" height="30" viewBox="0 0 34 30" fill="none" xmlns="http://www.w3.org/2000/svg">
<path fill-rule="evenodd" clip-rule="evenodd" d="M14.5601 1.09033C11.8346 1.45433 9.08987 2.37953 6.98723 3.64314C5.53997 4.51293 3.86442 5.9433 2.87774 7.15143C1.40217 8.95817 0.462901 11.0082 0.0789193 13.2602C0.00359685 13.7022 -0.0111426 14.1062 0.00702069 15.2353C0.0279694 16.5347 0.0434637 16.7131 0.190046 17.3419C0.814387 20.0202 2.04781 22.1642 4.09323 24.127C6.8425 26.7651 10.726 28.4928 14.9083 28.9383C15.5568 29.0074 18.0896 29.0227 18.9123 28.9624C20.4783 28.8477 22.5213 28.3924 24.1426 27.7969C25.8511 27.1693 27.173 26.4545 28.7338 25.314L29.3576 24.8582V22.8318C29.3576 21.7173 29.3442 20.8055 29.3277 20.8055C29.3113 20.8055 29.122 20.931 28.907 21.0845C25.4695 23.5389 20.3789 23.6442 16.7652 21.3355C15.0842 20.2615 13.7893 18.6473 13.3377 17.063C12.7637 15.049 13.0768 12.9774 14.2103 11.2898C15.0986 9.96713 16.2453 9.00333 17.8388 8.23997C18.7456 7.80551 19.4531 7.56695 20.3892 7.37997C23.3794 6.78263 26.633 7.43127 28.9005 9.07673C29.1119 9.2301 29.3012 9.35559 29.3212 9.35559C29.3413 9.35559 29.3576 8.40508 29.3576 7.24338V5.13111L28.7338 4.67363C27.5538 3.8083 26.4976 3.18583 25.3528 2.68106C23.5578 1.88965 21.4914 1.32242 19.5307 1.08295C18.5966 0.968851 15.4347 0.973546 14.5601 1.09033ZM8.2239 6.92347C9.08952 7.12481 9.81437 7.54577 10.5056 8.24867C11.0058 8.75733 11.2615 9.13753 11.4811 9.69932C11.7495 10.3859 11.79 10.6541 11.7614 11.5521C11.7377 12.2912 11.7191 12.4047 11.5457 12.8642C11.3002 13.5152 10.9112 14.0922 10.3757 14.6C9.6628 15.276 8.88978 15.682 8.03745 15.8281C7.44821 15.9291 6.3283 15.8686 5.8719 15.711C5.46749 15.5714 5.50161 15.6389 5.3942 14.7657C5.30077 14.0056 5.25794 13.363 5.30077 13.363C5.32294 13.363 5.42571 13.4266 5.52906 13.5044C5.91432 13.7944 6.66209 14.0481 7.13462 14.0493C7.27952 14.0497 7.54733 14.0117 7.72983 13.9648C8.56737 13.7496 9.17819 13.2472 9.55666 12.4623C9.76661 12.0268 9.77102 12.0035 9.77183 11.3307C9.77265 10.6551 9.76905 10.6363 9.55666 10.1974C8.93174 8.9063 7.53085 8.3089 6.243 8.7843C5.51948 9.05131 4.83009 9.76183 4.62095 10.4559C4.50217 10.8503 4.46689 12.1233 4.44913 16.6549C4.43015 21.5152 4.41425 22.2939 4.33406 22.2939C4.29785 22.2939 3.89396 22.0942 3.43645 21.8503L2.6046 21.4066L2.6198 15.9106L2.63501 10.4147L2.84293 9.88938C3.14596 9.12373 3.38382 8.76455 3.97201 8.18427C4.65629 7.50918 5.25121 7.1662 6.15276 6.92702C6.57382 6.81527 7.75008 6.81326 8.2239 6.92347ZM24.6572 12.9623V14.3935H25.2285C25.5427 14.3935 26.078 14.4103 26.4181 14.4309L27.0365 14.4682V16.6636V18.859H29.4353H31.8341L31.873 16.6735C31.8945 15.4714 31.9195 14.4805 31.9287 14.4714C31.9379 14.4623 32.4077 14.4372 32.9727 14.4154L34 14.3758V12.9534V11.5311H29.3286H24.6572V12.9623Z" fill="#C10723"/>
</svg>
