<svg width="20" height="21" viewBox="0 0 20 21" fill="none" xmlns="http://www.w3.org/2000/svg">
<path d="M0.714355 5.81955C0.714355 5.07176 1.02013 4.35459 1.56441 3.82583C2.10869 3.29706 2.8469 3 3.61663 3H16.3835C17.1532 3 17.8915 3.29706 18.4357 3.82583C18.98 4.35459 19.2858 5.07176 19.2858 5.81955V5.82707L9.99852 10.4489L0.714355 5.83008V5.81955ZM0.714355 7.09699V14.4662C0.714355 15.214 1.02013 15.9311 1.56441 16.4599C2.10869 16.9887 2.8469 17.2857 3.61663 17.2857H16.3835C17.1532 17.2857 17.8915 16.9887 18.4357 16.4599C18.98 15.9311 19.2858 15.214 19.2858 14.4662V7.09474L10.2632 11.585C10.1813 11.6257 10.0906 11.647 9.99852 11.647C9.90648 11.647 9.81575 11.6257 9.73384 11.585L0.714355 7.09699Z" fill="white"/>
</svg>
