<svg width="178" height="48" viewBox="0 0 178 48" fill="none" xmlns="http://www.w3.org/2000/svg">
<path fill-rule="evenodd" clip-rule="evenodd" d="M12.5513 0.209497C13.1264 1.99475 13.2555 2.80807 13.2522 4.61956C13.2489 6.31908 13.1819 6.78104 12.7665 7.96338C11.8037 10.7046 10.6328 12.3251 6.43621 16.7249C1.44038 21.9625 -0.0102684 24.4904 5.46143e-05 27.9405C0.00722825 30.2675 0.798778 32.5499 2.46814 35.0569C3.28243 36.2797 4.61148 37.9401 4.70351 37.8497C4.73938 37.8146 4.60868 37.2874 4.41307 36.6785C3.85737 34.9488 3.79193 32.7957 4.23932 30.9649C4.93342 28.125 6.66576 25.5129 10.3973 21.6799C13.8355 18.1478 15.1476 16.5187 16.2062 14.4674C17.2434 12.4575 17.5443 9.7296 16.9713 7.53468C16.4398 5.49873 14.5099 2.17823 12.6858 0.161484C12.4818 -0.0640096 12.4652 -0.0581793 12.5513 0.209497ZM20.4 11.0928C20.8972 12.5027 21.0185 15.6518 20.6328 17.1419C19.8539 20.152 18.1717 22.5842 13.7089 27.1533C9.3718 31.5937 7.85904 34.1425 7.63578 37.3862C7.49563 39.4213 7.89263 41.0666 9.06876 43.3243C9.88865 44.8988 12.0434 47.9907 12.3268 48C12.3859 48.0019 12.2783 47.5598 12.0875 47.0174C11.6408 45.7481 11.4703 42.5326 11.7774 41.1654C12.4601 38.1244 14.0875 35.7491 18.7966 30.9196C23.2047 26.3986 24.8938 23.3875 24.9015 20.0371C24.9078 17.275 23.427 14.0198 20.5922 10.5642C20.386 10.3126 20.18 10.1068 20.1345 10.1068C20.0892 10.1068 20.2085 10.5506 20.4 11.0928ZM31.2029 32.8276V34.6282H34.3523H37.5017V40.8871V47.146H41.0885H44.6754V40.8871V34.6282H47.8248H50.9742V32.8276V31.0271H41.0885H31.2029V32.8276ZM53.9486 37.2293C52.0721 40.6379 50.0773 44.2637 49.5156 45.2864L48.4947 47.146H50.8697H53.2449L53.9486 45.7742L54.6523 44.4024H59.6282H64.6039L65.3321 45.7742L66.0603 47.146H70.08H74.0999L73.4966 46.0743C73.1647 45.4849 72.2954 43.9223 71.5649 42.6019C70.8343 41.2815 69.1005 38.1563 67.712 35.657L65.1872 31.1129L61.2739 31.0724L57.3604 31.0319L53.9486 37.2293ZM71.6202 32.8276V34.6282H74.7696H77.919V40.8905V47.1531L81.5496 47.1066L85.1802 47.0603L85.226 40.8442L85.272 34.6282H88.1567H91.0415V32.8276V31.0271H81.3309H71.6202V32.8276ZM93.4911 39.0866V47.146H95.9376H98.3842L98.4309 42.7812L98.4776 38.4164L102.327 41.3216C104.444 42.9196 107.054 44.8837 108.126 45.6864L110.076 47.146H112.719H115.362V39.0866V31.0271H112.912H110.463V34.9711C110.463 37.1403 110.419 38.9151 110.365 38.9151C110.311 38.9151 107.929 37.271 105.072 35.2613C102.215 33.2517 99.6826 31.4769 99.4447 31.3173C99.0834 31.075 98.5578 31.0271 96.2515 31.0271H93.4911V39.0866ZM119.211 39.085V47.146H128.834H138.458V45.3455V43.545H132.421H126.385V42.2589V40.9728H131.021H135.658V39.0866V37.2003H131.021H126.385V35.9165V34.6326L132.377 34.5875L138.37 34.5424V32.8276V31.1129L128.791 31.0685L119.211 31.0242V39.085ZM141.607 39.0866V47.146H145.281H148.956V44.2309V41.3158H152.805H156.654V39.5153V37.7148H152.805H148.956V36.1715V34.6282H156.654H164.353V40.8871V47.146H167.939H171.526V40.8871V34.6282H174.763H178V32.8276V31.0271H159.803H141.607V39.0866ZM61.2559 37.9733C62.0485 39.5302 62.6969 40.842 62.6969 40.8885C62.6969 40.9349 61.3191 40.9728 59.635 40.9728C57.951 40.9728 56.5731 40.937 56.5731 40.8931C56.5731 40.698 59.5902 35.1426 59.6963 35.1426C59.7615 35.1426 60.4633 36.4165 61.2559 37.9733Z" fill="#080808"/>
</svg>
